<?xml version="1.0" encoding="utf-8"?>
<!-- Generator: Adobe Illustrator 26.0.1, SVG Export Plug-In . SVG Version: 6.00 Build 0)  -->
<svg version="1.1" xmlns="http://www.w3.org/2000/svg" xmlns:xlink="http://www.w3.org/1999/xlink" x="0px" y="0px"
	 viewBox="0 0 100 100" style="enable-background:new 0 0 100 100;" xml:space="preserve">
<style type="text/css">
	.st0{display:none;}
	.st1{display:inline;fill:#DB0011;}
	.st2{fill:#DB0011;}
	.st3{fill:#FFFFFF;stroke:#8C8C8C;stroke-width:0.4583;stroke-miterlimit:10;}
	.st4{fill:#F3F3F3;}
	.st5{fill:#DEDEDE;}
	.st6{fill:#D7D8D6;}
	.st7{fill:#BFBFBF;}
	.st8{fill:#333333;}
	.st9{fill:#B2192C;}
	.st10{fill:#FFBB33;}
	.st11{fill:#14A5AB;}
	.st12{fill:#1564B5;}
	.st13{fill:#F9EFF0;}
	.st14{fill:#FFFAF1;}
	.st15{fill:#EEF9F9;}
	.st16{fill:#EEF4FA;}
	.st17{fill:#A6A6A6;}
	.st18{fill:#FFFFFF;}
	.st19{fill:#D99898;}
	.st20{opacity:0.2;fill:#DB0011;}
	.st21{opacity:0.3;fill:#DB0011;}
	.st22{fill:#F2E4D1;}
	.st23{fill:#999999;}
	.st24{fill:#666666;}
	.st25{fill:none;}
	.st26{fill:none;stroke:#000000;stroke-miterlimit:10;}
	.st27{fill:none;stroke:#000000;stroke-linecap:round;stroke-miterlimit:10;}
	.st28{fill:none;stroke:#724A19;stroke-width:1.1149;stroke-miterlimit:10;}
	.st29{fill:#990000;}
	.st30{fill:#DCC0AB;}
	.st31{display:inline;}
	.st32{display:inline;fill:#BFBFBF;}
	.st33{display:none;fill:#DCC0AB;}
	.st34{display:none;fill:#BFBFBF;}
	.st35{display:none;fill:#F3F3F3;}
	.st36{display:inline;fill:none;}
	.st37{display:inline;fill:#333333;}
	.st38{display:none;fill:#333333;}
	.st39{display:inline;fill:#F3F3F3;}
	.st40{display:inline;fill:none;stroke:#606060;stroke-miterlimit:10;}
	.st41{fill:#FFFFFF;stroke:#000000;stroke-miterlimit:10;}
	.st42{fill-rule:evenodd;clip-rule:evenodd;fill:#FFFFFF;stroke:#000000;stroke-miterlimit:10;}
	.st43{fill:#FFA6A6;}
	.st44{fill:#F46269;}
	.st45{fill:#FFFFFF;stroke:#333333;stroke-width:2;stroke-linecap:round;stroke-linejoin:round;stroke-miterlimit:10;}
	.st46{fill:none;stroke:#333333;stroke-width:2;stroke-linecap:round;stroke-linejoin:round;stroke-miterlimit:10;}
	.st47{fill:none;stroke:#333333;stroke-miterlimit:10;}
	.st48{fill:#FFFFFF;stroke:#333333;stroke-width:1.5;stroke-miterlimit:10;}
	.st49{fill:none;stroke:#333333;stroke-width:1.5;stroke-linecap:round;stroke-miterlimit:10;}
	.st50{fill:none;stroke:#333333;stroke-width:1.5;stroke-miterlimit:10;}
	.st51{fill:none;stroke:#FFFFFF;stroke-width:2;stroke-linecap:round;stroke-miterlimit:10;}
	.st52{fill:#FFFFFF;stroke:#333333;stroke-width:1.5;stroke-linecap:round;stroke-miterlimit:10;}
	.st53{display:none;opacity:0.32;}
	.st54{fill:#FFFFFF;stroke:#333333;stroke-width:1.9141;stroke-linecap:round;stroke-miterlimit:10;}
	.st55{fill:#F46269;stroke:#333333;stroke-width:1.5;stroke-linecap:round;stroke-miterlimit:10;}
	.st56{fill:none;stroke:#333333;stroke-width:1.7217;stroke-linecap:round;stroke-miterlimit:10;}
	.st57{fill:none;stroke:#333333;stroke-width:1.7217;stroke-linecap:round;stroke-miterlimit:10;stroke-dasharray:0.8857,3.5427;}
	.st58{fill:#F8AFAF;}
	.st59{fill:none;stroke:#333333;stroke-width:2;stroke-linecap:round;stroke-miterlimit:10;}
	.st60{fill:#FFFFFF;stroke:#333333;stroke-width:1.647;stroke-linecap:round;stroke-miterlimit:10;}
	
		.st61{clip-path:url(#SVGID_00000036954267403268949180000016180618162233745596_);fill:none;stroke:#333333;stroke-width:1.4435;stroke-miterlimit:10;}
	.st62{fill:none;stroke:#333333;stroke-width:1.4435;stroke-miterlimit:10;}
	.st63{fill:none;stroke:#333333;stroke-width:1.627;stroke-linecap:round;stroke-miterlimit:10;}
	.st64{fill:#F8AFAF;stroke:#333333;stroke-width:1.5;stroke-linecap:round;stroke-miterlimit:10;}
	.st65{fill:none;stroke:#333333;stroke-width:1.5;stroke-linecap:round;stroke-miterlimit:10;stroke-dasharray:0.7705,3.0822;}
	.st66{fill:#F4B2B7;stroke:#333333;stroke-width:1.5;stroke-linecap:round;stroke-miterlimit:10;}
	.st67{fill:#F4B2B7;}
	
		.st68{clip-path:url(#SVGID_00000065762451997972140200000002931000420432109959_);fill:none;stroke:#333333;stroke-width:1.4435;stroke-miterlimit:10;}
	.st69{fill:none;stroke:#333333;stroke-width:1.3087;stroke-linecap:round;stroke-miterlimit:10;}
	.st70{fill:none;stroke:#FFA6A6;stroke-width:7;stroke-linecap:round;stroke-miterlimit:10;}
	.st71{opacity:0.6;clip-path:url(#SVGID_00000168083033488022002960000005549729598484963515_);fill:#FFFFFF;}
	
		.st72{clip-path:url(#SVGID_00000168083033488022002960000005549729598484963515_);fill:none;stroke:#333333;stroke-width:1.4435;stroke-miterlimit:10;}
	.st73{opacity:0.6;clip-path:url(#SVGID_00000028311469967738515040000011389417865862558125_);fill:#FFFFFF;}
	
		.st74{clip-path:url(#SVGID_00000028311469967738515040000011389417865862558125_);fill:none;stroke:#333333;stroke-width:1.4435;stroke-miterlimit:10;}
</style>
<g id="Layer_11">
</g>
<g id="Layer_10">
</g>
<g id="Layer_1">
</g>
<g id="Layer_2">
</g>
<g id="Layer_3_00000036971842284572111370000011138480952814600354_">
</g>
<g id="Layer_4">
</g>
<g id="Layer_5">
</g>
<g id="Layer_6">
</g>
<g id="Layer_7">
</g>
<g id="Layer_8">
</g>
<g id="Layer_9">
	<g>
		<path id="XMLID_00000076580380385322167470000011771837316576568448_" class="st18" d="M40.1,39.4L30.6,25
			c-0.9-1.3-0.6-2.4,0.7-2.7l4.3-1.1c0.3-0.1,0.7,0,1,0.1l20.1,12.4"/>
		<path id="XMLID_00000044893224145432975240000007466829339201057461_" class="st43" d="M40.1,39.4L30.6,25
			c-0.9-1.3-0.6-2.4,0.7-2.7l1.3-0.3c0,0,14.2,15.8,14.5,15.9"/>
		<path id="XMLID_00000124154001281542068110000010093337113601724836_" class="st18" d="M60.9,51.8l24.6-7.7c2.4-0.7,4.6-2,6.3-3.8
			c0.2-0.2,0.3-0.3,0.4-0.5c1.6-2,1.5-5.2-1.5-6.4l-7.4-3.3c-3.5-1.8-7.2-2-12.9-0.4L28.2,44.5c-0.5,0.2-1.1,0.3-1.5,0.5
			c-2.2,0.6-4.5,0.5-6.6-0.4c0,0,0,0-0.1,0c-1.4-0.6-2.8-1.4-4-2.2l-3.3-2.2c-0.4-0.4-0.9-0.5-1.5-0.4L8,40.5
			C7,40.8,6.5,42.1,7.1,43c4.9,7.3,10.3,14.4,19.3,14.6c4.7,0.4,14.9-1.5,14.9-1.5S54.3,53.9,60.9,51.8z"/>
		<path class="st44" d="M76.3,34.6l0.3,2.5l10.7-4.6l-5-2.1L77.8,32C76.8,32.4,76.2,33.5,76.3,34.6z"/>
		<path class="st44" d="M27.5,45.8c-5.6,0.3-10.4-2.4-14.9-5.7l-6.3,1.7l4.7,6.4c0.9,1.2,2.5,1.6,4.6,1.6c1.3,0,2.6-0.3,3.9-0.7
			C22.1,48.2,24.8,47,27.5,45.8z"/>
		<path id="XMLID_00000106834733926923182170000003421956310583202723_" class="st45" d="M60.9,51.8L46.2,81.1
			c-0.2,0.3-0.5,0.5-0.9,0.6l-4.2,1.1c-1.2,0.2-2-0.8-1.9-2.1l2.2-25.8"/>
		<path id="XMLID_00000113321029703208526670000013476361062173852818_" class="st46" d="M40.1,39.4L30.6,25
			c-0.9-1.3-0.6-2.4,0.7-2.7l4.3-1.1c0.3-0.1,0.7,0,1,0.1l20.1,12.4"/>
		<path id="XMLID_00000103233128673439152690000003706255666102765454_" class="st46" d="M41.3,56.1c0,0-10.2,1.9-14.9,1.5
			C17.3,57.4,12,50.3,7.1,43C6.5,42.1,7,40.8,8,40.5l3.2-0.8c0.5-0.1,1.1,0,1.5,0.4l3.3,2.2c1.3,0.9,2.6,1.6,4,2.2c0,0,0,0,0.1,0
			c2.1,0.9,4.4,1,6.6,0.4c0.5-0.1,1-0.3,1.5-0.5l42.3-14.8c5.7-1.6,9.4-1.4,12.9,0.4l7.4,3.3c3,1.2,3.1,4.5,1.5,6.4
			c-0.1,0.1-0.2,0.3-0.4,0.5c-1.7,1.8-3.9,3.1-6.3,3.8l-24.6,7.7"/>
		<path id="XMLID_00000065044859352513051920000012573942436228945061_" class="st46" d="M88.3,32.4c-2,1.3-6.6,3.4-11.2,5.1"/>
		<g>
			<g>
				<path class="st44" d="M68.2,39.6c-0.4,0-0.8-0.2-1.1-0.5c-0.3-0.3-0.4-0.6-0.4-1c0-0.1,0-0.2,0-0.3c0-0.1,0-0.2,0.1-0.3
					c0-0.1,0.1-0.2,0.1-0.3c0.1-0.1,0.1-0.2,0.2-0.2c0.1-0.1,0.2-0.1,0.2-0.2c0.1-0.1,0.2-0.1,0.3-0.1s0.2-0.1,0.3-0.1
					c0.2,0,0.4,0,0.6,0c0.1,0,0.2,0.1,0.3,0.1s0.2,0.1,0.2,0.1c0.1,0,0.2,0.1,0.2,0.2c0.1,0.1,0.1,0.2,0.2,0.2
					c0.1,0.1,0.1,0.2,0.1,0.3c0,0.1,0.1,0.2,0.1,0.3c0,0.1,0,0.2,0,0.3c0,0.4-0.1,0.8-0.4,1C69,39.5,68.6,39.6,68.2,39.6z"/>
			</g>
			<g>
				<path class="st44" d="M46,45.4c-0.3-0.8,0.2-1.6,1-1.9l0,0c0.8-0.2,1.6,0.2,1.9,1l0,0c0.3,0.8-0.2,1.6-1,1.9l0,0
					c-0.1,0.1-0.3,0.1-0.5,0.1l0,0C46.8,46.4,46.2,46,46,45.4z M52.9,43.1c-0.3-0.8,0.2-1.6,1-1.9l0,0c0.8-0.3,1.6,0.2,1.9,1l0,0
					c0.3,0.8-0.2,1.6-1,1.9l0,0c-0.2,0-0.3,0.1-0.5,0.1l0,0C53.7,44.2,53.1,43.8,52.9,43.1z M59.8,40.9c-0.3-0.8,0.2-1.6,1-1.9l0,0
					c0.8-0.3,1.6,0.2,1.9,1l0,0c0.3,0.8-0.2,1.6-1,1.9l0,0c-0.1,0-0.3,0.1-0.5,0.1l0,0C60.6,41.9,60,41.5,59.8,40.9z"/>
			</g>
			<g>
				<path class="st44" d="M40.5,48.7c-0.4,0-0.8-0.2-1.1-0.4C39.1,48,39,47.6,39,47.2c0-0.4,0.2-0.8,0.4-1.1c0.6-0.6,1.6-0.6,2.1,0
					c0.3,0.3,0.4,0.7,0.4,1.1c0,0.4-0.2,0.8-0.4,1.1C41.3,48.6,40.9,48.7,40.5,48.7z"/>
			</g>
		</g>
	</g>
</g>
</svg>
