<?xml version="1.0" encoding="utf-8"?>
<!-- Generator: Adobe Illustrator 26.0.1, SVG Export Plug-In . SVG Version: 6.00 Build 0)  -->
<svg version="1.1" xmlns="http://www.w3.org/2000/svg" xmlns:xlink="http://www.w3.org/1999/xlink" x="0px" y="0px"
	 viewBox="0 0 100 100" style="enable-background:new 0 0 100 100;" xml:space="preserve">
<style type="text/css">
	.st0{display:none;}
	.st1{display:inline;fill:#DB0011;}
	.st2{fill:#DB0011;}
	.st3{fill:#FFFFFF;stroke:#8C8C8C;stroke-width:0.4583;stroke-miterlimit:10;}
	.st4{fill:#F3F3F3;}
	.st5{fill:#DEDEDE;}
	.st6{fill:#D7D8D6;}
	.st7{fill:#BFBFBF;}
	.st8{fill:#333333;}
	.st9{fill:#B2192C;}
	.st10{fill:#FFBB33;}
	.st11{fill:#14A5AB;}
	.st12{fill:#1564B5;}
	.st13{fill:#F9EFF0;}
	.st14{fill:#FFFAF1;}
	.st15{fill:#EEF9F9;}
	.st16{fill:#EEF4FA;}
	.st17{fill:#A6A6A6;}
	.st18{fill:#FFFFFF;}
	.st19{fill:#D99898;}
	.st20{opacity:0.2;fill:#DB0011;}
	.st21{opacity:0.3;fill:#DB0011;}
	.st22{fill:#F2E4D1;}
	.st23{fill:#999999;}
	.st24{fill:#666666;}
	.st25{fill:none;}
	.st26{fill:none;stroke:#000000;stroke-miterlimit:10;}
	.st27{fill:none;stroke:#000000;stroke-linecap:round;stroke-miterlimit:10;}
	.st28{fill:none;stroke:#724A19;stroke-width:1.1149;stroke-miterlimit:10;}
	.st29{fill:#990000;}
	.st30{fill:#DCC0AB;}
	.st31{display:inline;}
	.st32{display:inline;fill:#BFBFBF;}
	.st33{display:none;fill:#DCC0AB;}
	.st34{display:none;fill:#BFBFBF;}
	.st35{display:none;fill:#F3F3F3;}
	.st36{display:inline;fill:none;}
	.st37{display:inline;fill:#333333;}
	.st38{display:none;fill:#333333;}
	.st39{display:inline;fill:#F3F3F3;}
	.st40{display:inline;fill:none;stroke:#606060;stroke-miterlimit:10;}
	.st41{fill:#FFFFFF;stroke:#000000;stroke-miterlimit:10;}
	.st42{fill-rule:evenodd;clip-rule:evenodd;fill:#FFFFFF;stroke:#000000;stroke-miterlimit:10;}
	.st43{fill:#FFA6A6;}
	.st44{fill:#F46269;}
	.st45{fill:#FFFFFF;stroke:#333333;stroke-width:2;stroke-linecap:round;stroke-linejoin:round;stroke-miterlimit:10;}
	.st46{fill:none;stroke:#333333;stroke-width:2;stroke-linecap:round;stroke-linejoin:round;stroke-miterlimit:10;}
	.st47{fill:none;stroke:#333333;stroke-miterlimit:10;}
	.st48{fill:#FFFFFF;stroke:#333333;stroke-width:1.5;stroke-miterlimit:10;}
	.st49{fill:none;stroke:#333333;stroke-width:1.5;stroke-linecap:round;stroke-miterlimit:10;}
	.st50{fill:none;stroke:#333333;stroke-width:1.5;stroke-miterlimit:10;}
	.st51{fill:none;stroke:#FFFFFF;stroke-width:2;stroke-linecap:round;stroke-miterlimit:10;}
	.st52{fill:#FFFFFF;stroke:#333333;stroke-width:1.5;stroke-linecap:round;stroke-miterlimit:10;}
	.st53{display:none;opacity:0.32;}
	.st54{fill:#FFFFFF;stroke:#333333;stroke-width:1.9141;stroke-linecap:round;stroke-miterlimit:10;}
	.st55{fill:#F46269;stroke:#333333;stroke-width:1.5;stroke-linecap:round;stroke-miterlimit:10;}
	.st56{fill:none;stroke:#333333;stroke-width:1.7217;stroke-linecap:round;stroke-miterlimit:10;}
	.st57{fill:none;stroke:#333333;stroke-width:1.7217;stroke-linecap:round;stroke-miterlimit:10;stroke-dasharray:0.8857,3.5427;}
	.st58{fill:#F8AFAF;}
	.st59{fill:none;stroke:#333333;stroke-width:2;stroke-linecap:round;stroke-miterlimit:10;}
	.st60{fill:#FFFFFF;stroke:#333333;stroke-width:1.647;stroke-linecap:round;stroke-miterlimit:10;}
	
		.st61{clip-path:url(#SVGID_00000159447982407831133350000009435647980060909451_);fill:none;stroke:#333333;stroke-width:1.4435;stroke-miterlimit:10;}
	.st62{fill:none;stroke:#333333;stroke-width:1.4435;stroke-miterlimit:10;}
	.st63{fill:none;stroke:#333333;stroke-width:1.627;stroke-linecap:round;stroke-miterlimit:10;}
	.st64{fill:#F8AFAF;stroke:#333333;stroke-width:1.5;stroke-linecap:round;stroke-miterlimit:10;}
	.st65{fill:none;stroke:#333333;stroke-width:1.5;stroke-linecap:round;stroke-miterlimit:10;stroke-dasharray:0.7705,3.0822;}
	.st66{fill:#F4B2B7;stroke:#333333;stroke-width:1.5;stroke-linecap:round;stroke-miterlimit:10;}
	.st67{fill:#F4B2B7;}
	
		.st68{clip-path:url(#SVGID_00000121262345139453239830000009958944576013842342_);fill:none;stroke:#333333;stroke-width:1.4435;stroke-miterlimit:10;}
	.st69{fill:none;stroke:#333333;stroke-width:1.3087;stroke-linecap:round;stroke-miterlimit:10;}
	.st70{fill:none;stroke:#FFA6A6;stroke-width:7;stroke-linecap:round;stroke-miterlimit:10;}
	.st71{opacity:0.6;clip-path:url(#SVGID_00000050643783180490101380000007526335197827638918_);fill:#FFFFFF;}
	
		.st72{clip-path:url(#SVGID_00000050643783180490101380000007526335197827638918_);fill:none;stroke:#333333;stroke-width:1.4435;stroke-miterlimit:10;}
	.st73{opacity:0.6;clip-path:url(#SVGID_00000136402521496674285980000011850011591151036862_);fill:#FFFFFF;}
	
		.st74{clip-path:url(#SVGID_00000136402521496674285980000011850011591151036862_);fill:none;stroke:#333333;stroke-width:1.4435;stroke-miterlimit:10;}
</style>
<g id="Layer_11">
</g>
<g id="Layer_10">
</g>
<g id="Layer_1">
</g>
<g id="Layer_2">
</g>
<g id="Layer_3_00000036971842284572111370000011138480952814600354_">
</g>
<g id="Layer_4">
</g>
<g id="Layer_5">
</g>
<g id="Layer_6">
</g>
<g id="Layer_7">
</g>
<g id="Layer_8">
</g>
<g id="Layer_9">
	<g>
		<rect x="17.6" y="67" class="st18" width="65.6" height="19.1"/>
		<g>
			<path class="st43" d="M28.6,70.2h-8c-1.2,0-2.3-0.9-2.5-2.1L18,67.6h10.6L28.6,70.2z"/>
			<path class="st43" d="M72.3,70.2h8c1.2,0,2.3-0.9,2.5-2.1l0.1-0.5H72.3L72.3,70.2z"/>
			<g>
				<line class="st49" x1="14.9" y1="86.2" x2="85.9" y2="86.2"/>
				<line class="st49" x1="30.4" y1="19.5" x2="70.4" y2="19.5"/>
				<line class="st49" x1="33.4" y1="22.6" x2="33.4" y2="19.5"/>
				<line class="st49" x1="67.4" y1="22.6" x2="67.4" y2="19.5"/>
				<path class="st52" d="M72.3,39.7h10.9c0.8,0,1.4,0.6,1.4,1.4v24.5c0,0.8-0.6,1.4-1.4,1.4H72.3"/>
				<line class="st49" x1="83.2" y1="86.2" x2="83.2" y2="67"/>
				<path class="st52" d="M28.5,39.7H17.6c-0.8,0-1.4,0.6-1.4,1.4v24.5c0,0.8,0.6,1.4,1.4,1.4h10.9"/>
				<line class="st49" x1="17.6" y1="86.2" x2="17.6" y2="67"/>
				<path class="st43" d="M27.4,51.2h-4.7c-0.5,0-0.9-0.4-0.9-0.9v-4.7c0-0.5,0.4-0.9,0.9-0.9h4.7c0.5,0,0.9,0.4,0.9,0.9v4.7
					C28.3,50.8,27.9,51.2,27.4,51.2z"/>
				<path class="st43" d="M27.4,62h-4.7c-0.5,0-0.9-0.4-0.9-0.9v-4.7c0-0.5,0.4-0.9,0.9-0.9h4.7c0.5,0,0.9,0.4,0.9,0.9v4.7
					C28.3,61.6,27.9,62,27.4,62z"/>
				<path class="st43" d="M77.8,51.2h-4.7c-0.5,0-0.9-0.4-0.9-0.9v-4.7c0-0.5,0.4-0.9,0.9-0.9h4.7c0.5,0,0.9,0.4,0.9,0.9v4.7
					C78.7,50.8,78.3,51.2,77.8,51.2z"/>
				<path class="st43" d="M77.8,62h-4.7c-0.5,0-0.9-0.4-0.9-0.9v-4.7c0-0.5,0.4-0.9,0.9-0.9h4.7c0.5,0,0.9,0.4,0.9,0.9v4.7
					C78.7,61.6,78.3,62,77.8,62z"/>
				<path class="st52" d="M72.3,86.2H28.5V25.6c0-1.3,1-2.3,2.3-2.3H70c1.3,0,2.3,1,2.3,2.3V86.2z"/>
				<path class="st43" d="M44.2,47h-5.1c-0.5,0-0.9-0.4-0.9-0.9V41c0-0.5,0.4-0.9,0.9-0.9h5.1c0.5,0,0.9,0.4,0.9,0.9v5.1
					C45,46.6,44.7,47,44.2,47z"/>
				<path class="st43" d="M44.2,36.1h-5.1c-0.5,0-0.9-0.4-0.9-0.9v-5.1c0-0.5,0.4-0.9,0.9-0.9h5.1c0.5,0,0.9,0.4,0.9,0.9v5.1
					C45,35.7,44.7,36.1,44.2,36.1z"/>
				<path class="st43" d="M61.5,36h-5.1c-0.5,0-0.9-0.4-0.9-0.9v-5.1c0-0.5,0.4-0.9,0.9-0.9h5.1c0.5,0,0.9,0.4,0.9,0.9v5.1
					C62.4,35.6,62,36,61.5,36z"/>
				<path class="st43" d="M61.5,47h-5.1c-0.5,0-0.9-0.4-0.9-0.9V41c0-0.5,0.4-0.9,0.9-0.9h5.1c0.5,0,0.9,0.4,0.9,0.9v5.1
					C62.4,46.6,62,47,61.5,47z"/>
				<path class="st43" d="M44.2,58.1h-5.1c-0.5,0-0.9-0.4-0.9-0.9v-5.1c0-0.5,0.4-0.9,0.9-0.9h5.1c0.5,0,0.9,0.4,0.9,0.9v5.1
					C45,57.7,44.7,58.1,44.2,58.1z"/>
				<path class="st43" d="M61.5,58h-5.1c-0.5,0-0.9-0.4-0.9-0.9V52c0-0.5,0.4-0.9,0.9-0.9h5.1c0.5,0,0.9,0.4,0.9,0.9v5.1
					C62.4,57.6,62,58,61.5,58z"/>
				<g>
					<path class="st18" d="M61.9,86.2h-23v-16c0-0.7,0.6-1.3,1.3-1.3h20.4c0.7,0,1.3,0.6,1.3,1.3V86.2z"/>
					<path class="st43" d="M61.9,86.2h-7c-7.3-0.2-9-3.4-10.5-6s-4.1-11.2-4.1-11.2h20.4c0.7,0,1.3,0.6,1.3,1.3V86.2z"/>
					<line class="st49" x1="36.3" y1="64.2" x2="64.4" y2="64.2"/>
					<line class="st49" x1="50.4" y1="86.2" x2="50.4" y2="69.5"/>
				</g>
				<path class="st49" d="M61.9,86.2h-23v-16c0-0.7,0.6-1.3,1.3-1.3h20.4c0.7,0,1.3,0.6,1.3,1.3V86.2z"/>
			</g>
			<rect x="34" y="20" class="st43" width="32.8" height="2.6"/>
		</g>
	</g>
</g>
</svg>
